<?xml version="1.0" encoding="UTF-8" standalone="no"?>
<!-- Created with Inkscape (http://www.inkscape.org/) -->

<svg
   xmlns:dc="http://purl.org/dc/elements/1.1/"
   xmlns:cc="http://creativecommons.org/ns#"
   xmlns:rdf="http://www.w3.org/1999/02/22-rdf-syntax-ns#"
   xmlns:svg="http://www.w3.org/2000/svg"
   xmlns="http://www.w3.org/2000/svg"
   xmlns:xlink="http://www.w3.org/1999/xlink"
   xmlns:sodipodi="http://sodipodi.sourceforge.net/DTD/sodipodi-0.dtd"
   xmlns:inkscape="http://www.inkscape.org/namespaces/inkscape"
   width="360"
   height="200"
   id="svg3014"
   version="1.1"
   inkscape:version="0.48.4 r9939"
   sodipodi:docname="gloggmaker.svg"
   preserveAspectRatio="xMinYMin meet"
   viewBox="0 0 360 200">
  <defs
     id="defs3016">
    <linearGradient
       id="linearGradient3964">
      <stop
         style="stop-color:#2e3436;stop-opacity:1;"
         offset="0"
         id="stop3966" />
      <stop
         id="stop3973"
         offset="0.5"
         style="stop-color:#2e3436;stop-opacity:0.49803922;" />
      <stop
         style="stop-color:#2e3436;stop-opacity:0;"
         offset="1"
         id="stop3968" />
    </linearGradient>
    <linearGradient
       id="linearGradient3928"
       inkscape:collect="always">
      <stop
         id="stop3930"
         offset="0"
         style="stop-color:#4e9a06;stop-opacity:1" />
      <stop
         id="stop3932"
         offset="1"
         style="stop-color:#4e9a06;stop-opacity:0" />
    </linearGradient>
    <linearGradient
       inkscape:collect="always"
       id="linearGradient3904">
      <stop
         style="stop-color:#2e3436;stop-opacity:1;"
         offset="0"
         id="stop3906" />
      <stop
         style="stop-color:#2e3436;stop-opacity:0;"
         offset="1"
         id="stop3908" />
    </linearGradient>
    <linearGradient
       inkscape:collect="always"
       xlink:href="#linearGradient3904"
       id="linearGradient3912"
       x1="221.67798"
       y1="564.81207"
       x2="310.41989"
       y2="596.98541"
       gradientUnits="userSpaceOnUse" />
    <linearGradient
       inkscape:collect="always"
       xlink:href="#linearGradient3928"
       id="linearGradient3918"
       gradientUnits="userSpaceOnUse"
       x1="221.67798"
       y1="564.81207"
       x2="310.41989"
       y2="596.98541"
       gradientTransform="translate(0,70)" />
    <linearGradient
       inkscape:collect="always"
       xlink:href="#linearGradient3928"
       id="linearGradient3939"
       gradientUnits="userSpaceOnUse"
       gradientTransform="translate(0,70)"
       x1="221.67798"
       y1="564.81207"
       x2="310.41989"
       y2="596.98541" />
    <clipPath
       clipPathUnits="userSpaceOnUse"
       id="clipPath4136">
      <rect
         style="color:#000000;fill:#000000;fill-opacity:1;fill-rule:nonzero;stroke:none;stroke-width:4;marker:none;visibility:visible;display:inline;overflow:visible;enable-background:accumulate"
         id="rect4138"
         width="272.23611"
         height="268.1955"
         x="12.626892"
         y="769.51947"
         ry="134.09775"
         rx="18.687822" />
    </clipPath>
    <clipPath
       clipPathUnits="userSpaceOnUse"
       id="clipPath5498">
      <rect
         y="512.36218"
         x="15"
         height="145"
         width="170"
         id="rect5500"
         style="opacity:0.2;color:#000000;fill:#2e3436;fill-opacity:1;fill-rule:nonzero;stroke:none;stroke-width:0.1;marker:none;visibility:visible;display:inline;overflow:visible;enable-background:accumulate" />
    </clipPath>
    <filter
       inkscape:collect="always"
       id="filter4060">
      <feGaussianBlur
         inkscape:collect="always"
         stdDeviation="1.0773608"
         id="feGaussianBlur4062" />
    </filter>
    <linearGradient
       inkscape:collect="always"
       xlink:href="#linearGradient3970"
       id="linearGradient3957"
       gradientUnits="userSpaceOnUse"
       gradientTransform="translate(0,70)"
       x1="221.67798"
       y1="564.81207"
       x2="310.41989"
       y2="596.98541" />
    <linearGradient
       inkscape:collect="always"
       id="linearGradient3970">
      <stop
         style="stop-color:#4e9a06;stop-opacity:1"
         offset="0"
         id="stop3972" />
      <stop
         style="stop-color:#4e9a06;stop-opacity:0"
         offset="1"
         id="stop3974" />
    </linearGradient>
  </defs>
  <sodipodi:namedview
     id="base"
     pagecolor="#062d58"
     bordercolor="#666666"
     borderopacity="1.0"
     inkscape:pageopacity="1"
     inkscape:pageshadow="2"
     inkscape:zoom="2"
     inkscape:cx="381.59768"
     inkscape:cy="89.172841"
     inkscape:document-units="px"
     inkscape:current-layer="layer1"
     showgrid="false"
     inkscape:window-width="1920"
     inkscape:window-height="1031"
     inkscape:window-x="0"
     inkscape:window-y="25"
     inkscape:window-maximized="1"
     inkscape:snap-page="true"
     showguides="true"
     inkscape:guide-bbox="true">
    <inkscape:grid
       type="xygrid"
       id="grid3079"
       empspacing="5"
       visible="true"
       enabled="true"
       snapvisiblegridlinesonly="true" />
  </sodipodi:namedview>
  <metadata
     id="metadata3019">
    <rdf:RDF>
      <cc:Work
         rdf:about="">
        <dc:format>image/svg+xml</dc:format>
        <dc:type
           rdf:resource="http://purl.org/dc/dcmitype/StillImage" />
        <dc:title />
      </cc:Work>
    </rdf:RDF>
  </metadata>
  <g
     inkscape:groupmode="layer"
     id="layer4"
     inkscape:label="bg"
     transform="translate(0,-360)" />
  <g
     inkscape:label="main"
     inkscape:groupmode="layer"
     id="layer1"
     transform="translate(0,-852.36218)">
    <path
       style="fill:none;stroke:#eeeeec;stroke-width:2;stroke-linecap:butt;stroke-linejoin:miter;stroke-miterlimit:4;stroke-opacity:1;stroke-dasharray:none"
       d="m 198.5,1029.9959 132.13446,0"
       id="path4265"
       inkscape:connector-curvature="0"
       sodipodi:nodetypes="cc" />
    <g
       id="fill_container"
       clip-path="url(#clipPath5498)"
       transform="matrix(1.0685753,0,0,1.0685753,-0.3428765,335.18208)">
      <g
         id="fill_content">
        <g
           transform="translate(-2.3485386e-7,10)"
           id="fill_content_anim">
          <path
             sodipodi:nodetypes="ccccsccccssccscsccccsccccc"
             inkscape:connector-curvature="0"
             id="foam"
             d="m 36.757943,511.11218 c 1.744024,7 9.898998,11.74501 12.636743,7.30104 3.260528,-5.70858 10.788536,1.13128 8.086233,5.5752 -0.914936,-4.10359 -6.764006,-3.72305 -4.401034,2.60968 2.792149,4.41258 6.567401,2.18494 10.744136,3.71099 4.178939,1.52686 8.242852,-5.0791 9.826763,-1.05009 -6.74538,3.91807 1.495213,10.09997 5.975745,7.71313 4.417924,0.32211 1.840983,-5.66293 1.077993,-6.81163 4.689779,-0.67661 2.545065,9.42002 8.665285,6.88515 5.043934,0.90193 9.811732,-7.26981 4.735078,-10.4213 -6.700056,-4.15927 5.850106,-3.02207 6.375455,1.5907 0.72148,6.33481 7.01818,8.0884 11.06373,4.45145 3.90959,2.02319 5.97996,-0.71489 8.32418,-3.18198 0.0191,5.90446 11.54873,4.14576 9.33378,-2.84321 -0.73954,-2.33349 -4.24496,-2.71477 -0.36506,-2.50884 5.00808,0.0878 6.30811,11.65067 11.68757,6.41271 2.21798,-2.15964 5.86879,-6.72551 5.087,-1.06066 5.21118,4.35977 8.2079,-7.68906 1.53536,-4.96112 0.082,-5.7264 9.98803,-2.30976 8.66338,3.40036 4.03942,4.88412 9.10457,-3.4781 4.22923,-7.13884 -5.7715,-3.42394 5.24685,-1.17345 5.90482,3.47426 0.85444,6.03554 8.44979,2.04055 8.89114,0.17383 C 178.54115,529.09156 185,502.36218 185,502.36218 l 0,45 -148.242057,0 z"
             style="fill:#eeeeec;stroke:none" />
          <path
             sodipodi:nodetypes="cscccc"
             inkscape:connector-curvature="0"
             id="beer"
             d="m 35.822117,532.36218 c 0,0 43.612831,18.51232 74.637743,10.02704 C 141.48477,533.90394 185,532.36218 185,532.36218 l 0,165 -149.177883,0 z"
             style="fill:#edd400;stroke:none" />
        </g>
      </g>
    </g>
    <g
       id="aggitator"
       transform="matrix(1.0685753,0,0,1.0685753,-176.67461,246.03243)"
       style="opacity:0.5">
      <path
         inkscape:connector-curvature="0"
         style="color:#000000;fill:url(#linearGradient3957);fill-opacity:1;fill-rule:nonzero;stroke:none;stroke-width:0.1;marker:none;visibility:visible;display:inline;overflow:visible;enable-background:accumulate"
         d="m 279.65625,655.67468 c -38.07612,0 -68.9375,11.94521 -68.9375,26.6875 0,3.53201 1.78182,6.9144 5,10 10.22086,-9.78796 34.99395,-16.6875 63.9375,-16.6875 28.94355,0 53.71664,6.89954 63.9375,16.6875 3.21818,-3.0856 5,-6.46799 5,-10 0,-14.74229 -30.86138,-26.6875 -68.9375,-26.6875 z"
         id="path3914" />
      <path
         sodipodi:nodetypes="cscsscc"
         style="color:#000000;fill:#4e9a06;fill-opacity:1;fill-rule:nonzero;stroke:none;stroke-width:0.1;marker:none;visibility:visible;display:inline;overflow:visible;enable-background:accumulate"
         d="m 302.73731,687.51977 c -7.21532,0.99082 -14.9846,1.52991 -23.08106,1.52991 -28.95371,0 -53.72328,-6.89407 -63.9375,-16.6875 -3.22499,3.0884 -5,6.46406 -5,10 0,14.74229 30.86138,26.6875 68.9375,26.6875 8.21286,0 16.09006,-0.55575 23.3943,-1.57544 z"
         id="path3916"
         inkscape:connector-curvature="0" />
      <path
         inkscape:transform-center-y="3.996818"
         inkscape:transform-center-x="-2.4746008"
         transform="matrix(1,0,0,0.68031016,-10.457107,530.23299)"
         d="m 347.75,228.75 -35.1992,43.82227 -20.3516,-52.39454 z"
         inkscape:randomized="0"
         inkscape:rounded="0"
         inkscape:flatsided="true"
         sodipodi:arg2="0.67670515"
         sodipodi:arg1="-0.37049241"
         sodipodi:r2="16.225945"
         sodipodi:r1="32.451885"
         sodipodi:cy="240.5"
         sodipodi:cx="317.5"
         sodipodi:sides="3"
         id="path3920"
         style="color:#000000;fill:#4e9a06;fill-opacity:1;fill-rule:nonzero;stroke:none;stroke-width:0.1;marker:none;visibility:visible;display:inline;overflow:visible;enable-background:accumulate"
         sodipodi:type="star" />
    </g>
    <text
       transform="scale(1.06949,0.93502511)"
       sodipodi:linespacing="125%"
       id="temp_inner_nominal"
       y="1041.649"
       x="135.55522"
       style="font-size:19.83788872px;font-style:normal;font-variant:normal;font-weight:normal;font-stretch:normal;text-align:end;line-height:125%;letter-spacing:0px;word-spacing:0px;text-anchor:end;fill:#ce5c00;fill-opacity:1;stroke:none;font-family:sans-serif;-inkscape-font-specification:sans-serif"
       xml:space="preserve"
       temp_inner_set=""><tspan
         style="font-weight:bold;text-align:end;text-anchor:end;fill:#ce5c00;font-family:Droid Sans;-inkscape-font-specification:Droid Sans Bold"
         y="1041.649"
         x="135.55522"
         id="tspan3182"
         sodipodi:role="line">77째</tspan></text>
    <path
       style="opacity:0.2;fill:#000000;stroke:#000000;stroke-width:1.06857526px;stroke-linecap:butt;stroke-linejoin:miter;stroke-opacity:1"
       d="m 197.34355,888.02253 -21.3715,0 c -50.23834,0 4.06031,102.67436 -96.171779,149.60057 l 117.543279,0 z"
       id="path3864"
       inkscape:connector-curvature="0"
       sodipodi:nodetypes="csccc" />
    <path
       style="fill:#ffffff;fill-opacity:1;stroke:none"
       d="M 34.516999,877.73749 C 30.079385,877.85958 25,880.27536 25,882.67965 c 0,4.2743 5.342877,3.20573 5.342877,7.48003 l 0,147.46342 c 0,3.2057 2.13715,5.3428 5.342876,5.3428 l 162.617857,0 c 3.20572,0 5.34287,-2.1371 5.34287,-5.3428 l 0,-147.46342 c 0,-4.2743 5.34288,-3.20573 5.34288,-7.48003 0,-4.2743 -16.98868,-8.5486 -16.98868,0 l 0,127.46335 c 0,2.1242 0.0471,2.1372 -2.13715,2.1372 l -146.69775,0 c -2.184275,0 -2.13715,-0.013 -2.13715,-2.1372 l 0,-127.46335 c 0,-3.74001 -3.060154,-5.03712 -6.511631,-4.94216 z"
       id="path3081"
       inkscape:connector-curvature="0"
       sodipodi:nodetypes="ssssccsssssccsss" />
    <text
       xml:space="preserve"
       style="font-size:42.72224426px;font-style:normal;font-variant:normal;font-weight:normal;font-stretch:normal;text-align:center;line-height:125%;letter-spacing:0px;word-spacing:0px;text-anchor:middle;fill:#ce5c00;fill-opacity:1;stroke:none;font-family:sans-serif;-inkscape-font-specification:sans-serif"
       x="107.25838"
       y="1019.3638"
       id="temp_inner_status"
       sodipodi:linespacing="125%"
       transform="scale(1.06949,0.93502511)"><tspan
         sodipodi:role="line"
         id="tspan3978"
         x="107.25838"
         y="1019.3638"
         style="font-weight:bold;text-align:center;text-anchor:middle;fill:#ce5c00;font-family:Droid Sans;-inkscape-font-specification:Droid Sans Bold">75째</tspan></text>
    <text
       xml:space="preserve"
       style="font-size:39.39413834px;font-style:normal;font-variant:normal;font-weight:normal;font-stretch:normal;text-align:start;line-height:125%;letter-spacing:0px;word-spacing:0px;text-anchor:start;fill:#ffffff;fill-opacity:1;stroke:none;font-family:Droid Sans;-inkscape-font-specification:Droid Sans"
       x="295.15475"
       y="926.58612"
       id="time_remaining"
       sodipodi:linespacing="125%"><tspan
         sodipodi:role="line"
         id="tspan4787"
         x="295.15475"
         y="926.58612"
         style="text-align:center;text-anchor:middle">0:34</tspan></text>
    <text
       sodipodi:linespacing="125%"
       id="time_elapsed"
       y="958.25641"
       x="314.96198"
       style="font-size:24.33264923px;font-style:normal;font-variant:normal;font-weight:normal;font-stretch:normal;text-align:start;line-height:125%;letter-spacing:0px;word-spacing:0px;text-anchor:start;fill:#ffffff;fill-opacity:1;stroke:none;font-family:Droid Sans;-inkscape-font-specification:Droid Sans"
       xml:space="preserve"><tspan
         style="text-align:center;text-anchor:middle"
         y="958.25641"
         x="314.96198"
         id="tspan4791"
         sodipodi:role="line">3:67</tspan></text>
    <path
       style="fill:none;stroke:#ffffff;stroke-width:3;stroke-linecap:butt;stroke-linejoin:miter;stroke-miterlimit:4;stroke-opacity:1;stroke-dasharray:none"
       d="m 247.97149,935.70901 94.44961,0"
       id="path4793"
       inkscape:connector-curvature="0"
       sodipodi:nodetypes="cc" />
    <rect
       ry="2.5000012"
       y="1017.7158"
       x="48.889088"
       height="17.646446"
       width="136.11092"
       id="temp_lower_icon"
       style="color:#000000;fill:#ef2929;fill-opacity:1;fill-rule:nonzero;stroke:#2e3436;stroke-width:5;stroke-miterlimit:4;stroke-dasharray:none;marker:none;visibility:visible;display:inline;overflow:visible;enable-background:accumulate" />
    <path
       style="fill:none;stroke:#ce5c00;stroke-width:2.13715053;stroke-linecap:butt;stroke-linejoin:miter;stroke-miterlimit:4;stroke-opacity:1;stroke-dasharray:none"
       d="m 77.128834,956.67849 72.128836,0"
       id="path3184"
       inkscape:connector-curvature="0"
       sodipodi:nodetypes="cc" />
    <g
       id="g3958"
       transform="matrix(1.0685753,0,0,-0.9778472,15.382822,1901.9203)">
      <rect
         ry="5"
         y="967.36218"
         x="27"
         height="40"
         width="25"
         id="rect3860"
         style="opacity:0.5;color:#000000;fill:#eeeeec;fill-opacity:1;fill-rule:nonzero;stroke:none;stroke-width:0.1;marker:none;visibility:visible;display:inline;overflow:visible;enable-background:accumulate" />
      <rect
         style="opacity:0.5;color:#000000;fill:#eeeeec;fill-opacity:1;fill-rule:nonzero;stroke:none;stroke-width:0.1;marker:none;visibility:visible;display:inline;overflow:visible;enable-background:accumulate"
         id="rect3862"
         width="24.503704"
         height="47.887638"
         x="27.496296"
         y="913.47455"
         ry="5" />
    </g>
    <g
       id="icon_heating"
       transform="matrix(0.64440775,0,0,0.64439841,263.61039,308.0669)">
      <path
         transform="translate(3.25,864.61218)"
         d="m 131.25,12.5 c 0,9.664983 -7.83502,17.5 -17.5,17.5 -9.66498,0 -17.5,-7.835017 -17.5,-17.5 0,-9.6649831 7.83502,-17.5 17.5,-17.5 9.66498,0 17.5,7.8350169 17.5,17.5 z"
         sodipodi:ry="17.5"
         sodipodi:rx="17.5"
         sodipodi:cy="12.5"
         sodipodi:cx="113.75"
         id="path4445"
         style="color:#000000;fill:none;stroke:#eeeeec;stroke-width:2.24354243;stroke-linecap:round;stroke-linejoin:miter;stroke-miterlimit:4;stroke-opacity:0.71090046;stroke-dasharray:none;stroke-dashoffset:0;marker:none;visibility:visible;display:inline;overflow:visible;enable-background:accumulate"
         sodipodi:type="arc" />
      <path
         style="fill:none;stroke:#ef2929;stroke-width:3.36531353;stroke-linecap:butt;stroke-linejoin:miter;stroke-miterlimit:4;stroke-opacity:1;stroke-dasharray:none"
         d="m 111.71441,866.83354 c -5.05673,9.41939 4.36267,11.20412 -0.59491,21.71418"
         id="path4456"
         inkscape:connector-curvature="0"
         sodipodi:nodetypes="cc" />
      <use
         x="0"
         y="0"
         xlink:href="#path4456"
         id="use4460"
         transform="translate(5.608856,0)"
         width="360"
         height="200" />
      <use
         height="200"
         width="360"
         transform="translate(11.217712,0)"
         id="use4462"
         xlink:href="#path4456"
         y="0"
         x="0" />
    </g>
    <path
       style="font-size:medium;font-style:normal;font-variant:normal;font-weight:normal;font-stretch:normal;text-indent:0;text-align:start;text-decoration:none;line-height:normal;letter-spacing:normal;word-spacing:normal;text-transform:none;direction:ltr;block-progression:tb;writing-mode:lr-tb;text-anchor:start;baseline-shift:baseline;color:#000000;fill:#ffffff;fill-opacity:1;stroke:none;stroke-width:6;marker:none;visibility:visible;display:inline;overflow:visible;enable-background:accumulate;font-family:Sans;-inkscape-font-specification:Sans"
       d="m 43.125,872.58093 0,6 12,0 0,-6 -12,0 z m 18,0 0,6 12,0 0,-6 -12,0 z m 18,0 0,6 12,0 0,-6 -12,0 z m 64,0 0,6 12,0 0,-6 -12,0 z m 18,0 0,6 12,0 0,-6 -12,0 z m 18,0 0,6 12,0 0,-6 -12,0 z"
       id="lid"
       inkscape:connector-curvature="0" />
    <text
       xml:space="preserve"
       style="font-size:17.09720421px;font-style:normal;font-variant:normal;font-weight:normal;font-stretch:normal;text-align:start;line-height:125%;letter-spacing:0px;word-spacing:0px;text-anchor:start;fill:#ffffff;fill-opacity:1;stroke:none;font-family:sans-serif;-inkscape-font-specification:sans-serif"
       x="283.09137"
       y="1027.03"
       id="lower_temp_status"
       sodipodi:linespacing="125%"><tspan
         sodipodi:role="line"
         id="tspan4710"
         x="283.09137"
         y="1027.03"
         style="font-weight:bold;text-align:end;text-anchor:end;font-family:Droid Sans;-inkscape-font-specification:Droid Sans Bold">287째</tspan></text>
    <g
       id="lid_override"
       transform="translate(0,10)">
      <path
         sodipodi:type="star"
         style="opacity:0.44680852;color:#000000;fill:#000000;fill-opacity:1;fill-rule:nonzero;stroke:#000000;stroke-width:3;stroke-linecap:butt;stroke-linejoin:round;stroke-miterlimit:4;stroke-opacity:1;stroke-dasharray:none;stroke-dashoffset:0;marker:none;visibility:visible;display:inline;overflow:visible;filter:url(#filter4060);enable-background:accumulate"
         id="path4058"
         sodipodi:sides="3"
         sodipodi:cx="182.08"
         sodipodi:cy="-66.225708"
         sodipodi:r1="26.666927"
         sodipodi:r2="13.333464"
         sodipodi:arg1="1.5707963"
         sodipodi:arg2="2.669982"
         inkscape:flatsided="false"
         inkscape:rounded="0"
         inkscape:randomized="0"
         d="m 182.08,-39.558781 -11.87795,-20.609245 -11.21629,-19.391145 23.78711,0.01801 22.40137,-0.01802 -11.90916,20.591231 z"
         transform="matrix(0.82752949,0,0,0.82752949,-123.6171,927.76136)"
         inkscape:transform-center-y="4.7499819" />
      <path
         inkscape:transform-center-y="4.7499819"
         transform="matrix(0.82752949,0,0,0.82752949,-124.77856,926.5999)"
         d="m 182.08,-39.558781 -11.87795,-20.609245 -11.21629,-19.391145 23.78711,0.01801 22.40137,-0.01802 -11.90916,20.591231 z"
         inkscape:randomized="0"
         inkscape:rounded="0"
         inkscape:flatsided="false"
         sodipodi:arg2="2.669982"
         sodipodi:arg1="1.5707963"
         sodipodi:r2="13.333464"
         sodipodi:r1="26.666927"
         sodipodi:cy="-66.225708"
         sodipodi:cx="182.08"
         sodipodi:sides="3"
         id="path3265"
         style="color:#000000;fill:#deff0d;fill-opacity:1;fill-rule:nonzero;stroke:#000000;stroke-width:3;stroke-linecap:butt;stroke-linejoin:round;stroke-miterlimit:4;stroke-opacity:1;stroke-dasharray:none;stroke-dashoffset:0;marker:none;visibility:visible;display:inline;overflow:visible;enable-background:accumulate"
         sodipodi:type="star" />
      <path
         inkscape:connector-curvature="0"
         id="path4131"
         style="font-size:18.58335686px;font-style:normal;font-variant:normal;font-weight:bold;font-stretch:normal;text-align:start;line-height:125%;letter-spacing:0px;word-spacing:0px;text-anchor:start;fill:#000000;fill-opacity:1;stroke:none;font-family:Droid Sans;-inkscape-font-specification:Droid Sans Bold"
         d="m 17.506001,872.19025 0,-4.39177 16.205993,0 0,4.39177 -1.914593,0 0,-2.03255 -12.376806,0 0,2.03255 -1.914594,0" />
    </g>
    <g
       id="fill_override"
       transform="translate(0,10)">
      <path
         inkscape:transform-center-y="4.7499819"
         transform="matrix(0.82752949,0,0,0.82752949,-123.6171,973.76136)"
         d="m 182.08,-39.558781 -11.87795,-20.609245 -11.21629,-19.391145 23.78711,0.01801 22.40137,-0.01802 -11.90916,20.591231 z"
         inkscape:randomized="0"
         inkscape:rounded="0"
         inkscape:flatsided="false"
         sodipodi:arg2="2.669982"
         sodipodi:arg1="1.5707963"
         sodipodi:r2="13.333464"
         sodipodi:r1="26.666927"
         sodipodi:cy="-66.225708"
         sodipodi:cx="182.08"
         sodipodi:sides="3"
         id="path4140"
         style="opacity:0.44680852;color:#000000;fill:#000000;fill-opacity:1;fill-rule:nonzero;stroke:#000000;stroke-width:3;stroke-linecap:butt;stroke-linejoin:round;stroke-miterlimit:4;stroke-opacity:1;stroke-dasharray:none;stroke-dashoffset:0;marker:none;visibility:visible;display:inline;overflow:visible;filter:url(#filter4060);enable-background:accumulate"
         sodipodi:type="star" />
      <path
         sodipodi:type="star"
         style="color:#000000;fill:#deff0d;fill-opacity:1;fill-rule:nonzero;stroke:#000000;stroke-width:3;stroke-linecap:butt;stroke-linejoin:round;stroke-miterlimit:4;stroke-opacity:1;stroke-dasharray:none;stroke-dashoffset:0;marker:none;visibility:visible;display:inline;overflow:visible;enable-background:accumulate"
         id="path4142"
         sodipodi:sides="3"
         sodipodi:cx="182.08"
         sodipodi:cy="-66.225708"
         sodipodi:r1="26.666927"
         sodipodi:r2="13.333464"
         sodipodi:arg1="1.5707963"
         sodipodi:arg2="2.669982"
         inkscape:flatsided="false"
         inkscape:rounded="0"
         inkscape:randomized="0"
         d="m 182.08,-39.558781 -11.87795,-20.609245 -11.21629,-19.391145 23.78711,0.01801 22.40137,-0.01802 -11.90916,20.591231 z"
         transform="matrix(0.82752949,0,0,0.82752949,-124.77856,972.5999)"
         inkscape:transform-center-y="4.7499819" />
      <path
         style="font-size:18.58335686px;font-style:normal;font-variant:normal;font-weight:bold;font-stretch:normal;text-align:start;line-height:125%;letter-spacing:0px;word-spacing:0px;text-anchor:start;fill:#000000;fill-opacity:1;stroke:none;font-family:Droid Sans;-inkscape-font-specification:Droid Sans Bold"
         d="m 25.09375,910.86218 -3.96875,8.625 2.15625,0 2.5625,-5.84375 2.875,5.84375 2.1875,0 -4.5,-8.625 -1.3125,0 z m -3.96875,10.21875 3.96875,8.65625 1.3125,0 4.5,-8.65625 -2.1875,0 -2.875,5.84375 -2.5625,-5.84375 -2.15625,0 z"
         id="path4134"
         inkscape:connector-curvature="0" />
    </g>
    <text
       sodipodi:linespacing="125%"
       id="lower_temp_nominal"
       y="1027.03"
       x="333.09137"
       style="font-size:17.09720421px;font-style:normal;font-variant:normal;font-weight:normal;font-stretch:normal;text-align:start;line-height:125%;letter-spacing:0px;word-spacing:0px;text-anchor:start;fill:#ffffff;fill-opacity:1;stroke:none;font-family:sans-serif;-inkscape-font-specification:sans-serif"
       xml:space="preserve"><tspan
         style="font-weight:bold;text-align:end;text-anchor:end;font-family:Droid Sans;-inkscape-font-specification:Droid Sans Bold"
         y="1027.03"
         x="333.09137"
         id="tspan3989"
         sodipodi:role="line">250째</tspan></text>
    <text
       sodipodi:linespacing="125%"
       id="text3995"
       y="1027.03"
       x="293.09137"
       style="font-size:17.09720421px;font-style:normal;font-variant:normal;font-weight:normal;font-stretch:normal;text-align:start;line-height:125%;letter-spacing:0px;word-spacing:0px;text-anchor:start;fill:#ffffff;fill-opacity:1;stroke:none;font-family:sans-serif;-inkscape-font-specification:sans-serif"
       xml:space="preserve"><tspan
         style="font-weight:bold;text-align:end;text-anchor:end;font-family:Droid Sans;-inkscape-font-specification:Droid Sans Bold"
         y="1027.03"
         x="293.09137"
         id="tspan3997"
         sodipodi:role="line">/</tspan></text>
    <g
       transform="matrix(0.89104493,0,0,0.89153888,12.869,99.356871)"
       id="mode_run">
      <path
         sodipodi:type="arc"
         style="color:#000000;fill:none;stroke:#eeeeec;stroke-width:2.24354243;stroke-linecap:round;stroke-linejoin:miter;stroke-miterlimit:4;stroke-opacity:0.71090046;stroke-dasharray:none;stroke-dashoffset:0;marker:none;visibility:visible;display:inline;overflow:visible;enable-background:accumulate"
         id="path4291"
         sodipodi:cx="113.75"
         sodipodi:cy="12.5"
         sodipodi:rx="17.5"
         sodipodi:ry="17.5"
         d="m 131.25,12.5 c 0,9.664983 -7.83502,17.5 -17.5,17.5 -9.66498,0 -17.5,-7.835017 -17.5,-17.5 0,-9.6649831 7.83502,-17.5 17.5,-17.5 9.66498,0 17.5,7.8350169 17.5,17.5 z"
         transform="translate(3.25,864.61218)" />
      <path
         style="color:#000000;fill:#4e9a06;fill-opacity:1;fill-rule:nonzero;stroke:none;stroke-width:1;marker:none;visibility:visible;display:inline;overflow:visible;enable-background:accumulate"
         inkscape:transform-center-x="-0.35477978"
         d="m 128.4459,877.11218 -16.68284,9.6265 0,-19.25301 z"
         id="path4299"
         inkscape:connector-curvature="0"
         sodipodi:nodetypes="cccc" />
    </g>
    <g
       id="mode_pause"
       transform="matrix(0.89104493,0,0,0.89153888,12.869,99.356871)">
      <path
         transform="translate(3.25,864.61218)"
         d="m 131.25,12.5 c 0,9.664983 -7.83502,17.5 -17.5,17.5 -9.66498,0 -17.5,-7.835017 -17.5,-17.5 0,-9.6649831 7.83502,-17.5 17.5,-17.5 9.66498,0 17.5,7.8350169 17.5,17.5 z"
         sodipodi:ry="17.5"
         sodipodi:rx="17.5"
         sodipodi:cy="12.5"
         sodipodi:cx="113.75"
         id="path4303"
         style="color:#000000;fill:none;stroke:#eeeeec;stroke-width:2.24354243;stroke-linecap:round;stroke-linejoin:miter;stroke-miterlimit:4;stroke-opacity:0.71090046;stroke-dasharray:none;stroke-dashoffset:0;marker:none;visibility:visible;display:inline;overflow:visible;enable-background:accumulate"
         sodipodi:type="arc" />
      <g
         id="g4320"
         transform="translate(0.11962032,-0.22003197)">
        <rect
           y="869.57532"
           x="109.11919"
           height="15.513789"
           width="6.2089558"
           id="rect4308"
           style="color:#000000;fill:#edd400;fill-opacity:1;fill-rule:nonzero;stroke:none;stroke-width:1;marker:none;visibility:visible;display:inline;overflow:visible;enable-background:accumulate" />
        <rect
           style="color:#000000;fill:#edd400;fill-opacity:1;fill-rule:nonzero;stroke:none;stroke-width:1;marker:none;visibility:visible;display:inline;overflow:visible;enable-background:accumulate"
           id="rect4310"
           width="6.2089558"
           height="15.513789"
           x="118.43262"
           y="869.57532" />
      </g>
    </g>
    <g
       transform="matrix(0.89104493,0,0,0.89153888,12.869,99.356871)"
       id="mode_stop">
      <path
         sodipodi:type="arc"
         style="color:#000000;fill:none;stroke:#eeeeec;stroke-width:2.24354243;stroke-linecap:round;stroke-linejoin:miter;stroke-miterlimit:4;stroke-opacity:0.71090046;stroke-dasharray:none;stroke-dashoffset:0;marker:none;visibility:visible;display:inline;overflow:visible;enable-background:accumulate"
         id="path4314"
         sodipodi:cx="113.75"
         sodipodi:cy="12.5"
         sodipodi:rx="17.5"
         sodipodi:ry="17.5"
         d="m 131.25,12.5 c 0,9.664983 -7.83502,17.5 -17.5,17.5 -9.66498,0 -17.5,-7.835017 -17.5,-17.5 0,-9.6649831 7.83502,-17.5 17.5,-17.5 9.66498,0 17.5,7.8350169 17.5,17.5 z"
         transform="translate(3.25,864.61218)" />
      <rect
         y="869.44537"
         x="109.2731"
         height="15.333625"
         width="15.453796"
         id="rect4316"
         style="color:#000000;fill:#ef2929;fill-opacity:1;fill-rule:nonzero;stroke:none;stroke-width:1;marker:none;visibility:visible;display:inline;overflow:visible;enable-background:accumulate" />
    </g>
    <text
       sodipodi:linespacing="125%"
       id="fill"
       y="1006.8622"
       x="187"
       style="font-size:17.02688789px;font-style:normal;font-variant:normal;font-weight:normal;font-stretch:normal;text-align:start;line-height:125%;letter-spacing:0px;word-spacing:0px;text-anchor:start;opacity:0.4;fill:#8f5902;fill-opacity:1;stroke:none;font-family:Droid Sans;-inkscape-font-specification:Droid Sans"
       xml:space="preserve"><tspan
         style="font-weight:bold;text-align:end;text-anchor:end;fill:#8f5902;-inkscape-font-specification:Droid Sans Bold"
         y="1006.8622"
         x="187"
         id="tspan3082"
         sodipodi:role="line">60%</tspan></text>
  </g>
</svg>
