<?xml version="1.0" encoding="UTF-8" standalone="no"?>
<!-- Created with Inkscape (http://www.inkscape.org/) -->

<svg
   width="360"
   height="200"
   id="svg3014"
   version="1.1"
   inkscape:version="1.3.2 (1:1.3.2+202311252150+091e20ef0f)"
   sodipodi:docname="kiln.svg"
   preserveAspectRatio="xMinYMin meet"
   viewBox="0 0 360 200"
   xmlns:inkscape="http://www.inkscape.org/namespaces/inkscape"
   xmlns:sodipodi="http://sodipodi.sourceforge.net/DTD/sodipodi-0.dtd"
   xmlns:xlink="http://www.w3.org/1999/xlink"
   xmlns="http://www.w3.org/2000/svg"
   xmlns:svg="http://www.w3.org/2000/svg"
   xmlns:rdf="http://www.w3.org/1999/02/22-rdf-syntax-ns#"
   xmlns:cc="http://creativecommons.org/ns#"
   xmlns:dc="http://purl.org/dc/elements/1.1/">
  <defs
     id="defs3016">
    <linearGradient
       id="linearGradient3964">
      <stop
         style="stop-color:#2e3436;stop-opacity:1;"
         offset="0"
         id="stop3966" />
      <stop
         id="stop3973"
         offset="0.5"
         style="stop-color:#2e3436;stop-opacity:0.49803922;" />
      <stop
         style="stop-color:#2e3436;stop-opacity:0;"
         offset="1"
         id="stop3968" />
    </linearGradient>
    <linearGradient
       id="linearGradient3928"
       inkscape:collect="always">
      <stop
         id="stop3930"
         offset="0"
         style="stop-color:#4e9a06;stop-opacity:1" />
      <stop
         id="stop3932"
         offset="1"
         style="stop-color:#4e9a06;stop-opacity:0" />
    </linearGradient>
    <linearGradient
       inkscape:collect="always"
       id="linearGradient3904">
      <stop
         style="stop-color:#2e3436;stop-opacity:1;"
         offset="0"
         id="stop3906" />
      <stop
         style="stop-color:#2e3436;stop-opacity:0;"
         offset="1"
         id="stop3908" />
    </linearGradient>
    <linearGradient
       inkscape:collect="always"
       xlink:href="#linearGradient3904"
       id="linearGradient3912"
       x1="221.67798"
       y1="564.81207"
       x2="310.41989"
       y2="596.98541"
       gradientUnits="userSpaceOnUse" />
    <linearGradient
       inkscape:collect="always"
       xlink:href="#linearGradient3928"
       id="linearGradient3918"
       gradientUnits="userSpaceOnUse"
       x1="221.67798"
       y1="564.81207"
       x2="310.41989"
       y2="596.98541"
       gradientTransform="translate(0,70)" />
    <linearGradient
       inkscape:collect="always"
       xlink:href="#linearGradient3928"
       id="linearGradient3939"
       gradientUnits="userSpaceOnUse"
       gradientTransform="translate(0,70)"
       x1="221.67798"
       y1="564.81207"
       x2="310.41989"
       y2="596.98541" />
    <clipPath
       clipPathUnits="userSpaceOnUse"
       id="clipPath4136">
      <rect
         style="color:#000000;fill:#000000;fill-opacity:1;fill-rule:nonzero;stroke:none;stroke-width:4;marker:none;visibility:visible;display:inline;overflow:visible;enable-background:accumulate"
         id="rect4138"
         width="272.23611"
         height="268.1955"
         x="12.626892"
         y="769.51947"
         ry="134.09775"
         rx="18.687822" />
    </clipPath>
    <clipPath
       clipPathUnits="userSpaceOnUse"
       id="clipPath5498">
      <rect
         y="512.36218"
         x="15"
         height="145"
         width="170"
         id="rect5500"
         style="opacity:0.2;color:#000000;fill:#2e3436;fill-opacity:1;fill-rule:nonzero;stroke:none;stroke-width:0.1;marker:none;visibility:visible;display:inline;overflow:visible;enable-background:accumulate" />
    </clipPath>
    <filter
       inkscape:collect="always"
       id="filter4060"
       x="-0.08845401"
       y="-0.10214064"
       width="1.176908"
       height="1.2042775">
      <feGaussianBlur
         inkscape:collect="always"
         stdDeviation="1.0773608"
         id="feGaussianBlur4062" />
    </filter>
    <filter
       inkscape:collect="always"
       style="color-interpolation-filters:sRGB"
       id="filter3998"
       x="-0.12304395"
       y="-0.12421545"
       width="1.2460881"
       height="1.2484309">
      <feGaussianBlur
         inkscape:collect="always"
         stdDeviation="1.9013427"
         id="feGaussianBlur4000" />
    </filter>
  </defs>
  <sodipodi:namedview
     id="base"
     pagecolor="#062d58"
     bordercolor="#666666"
     borderopacity="1.0"
     inkscape:pageopacity="1"
     inkscape:pageshadow="2"
     inkscape:zoom="11.313709"
     inkscape:cx="127.67696"
     inkscape:cy="164.80007"
     inkscape:document-units="px"
     inkscape:current-layer="layer1"
     showgrid="false"
     inkscape:window-width="3840"
     inkscape:window-height="2061"
     inkscape:window-x="1020"
     inkscape:window-y="3559"
     inkscape:window-maximized="1"
     inkscape:snap-page="false"
     showguides="true"
     inkscape:guide-bbox="true"
     inkscape:pagecheckerboard="0"
     inkscape:snap-global="true"
     inkscape:snap-grids="true"
     inkscape:snap-to-guides="false"
     inkscape:showpageshadow="0"
     inkscape:deskcolor="#d1d1d1">
    <inkscape:grid
       type="xygrid"
       id="grid3079"
       empspacing="5"
       visible="false"
       enabled="true"
       snapvisiblegridlinesonly="true"
       originx="0"
       originy="0"
       spacingy="1"
       spacingx="1"
       units="px" />
  </sodipodi:namedview>
  <metadata
     id="metadata3019">
    <rdf:RDF>
      <cc:Work
         rdf:about="">
        <dc:format>image/svg+xml</dc:format>
        <dc:type
           rdf:resource="http://purl.org/dc/dcmitype/StillImage" />
      </cc:Work>
    </rdf:RDF>
  </metadata>
  <g
     inkscape:groupmode="layer"
     id="layer4"
     inkscape:label="bg"
     transform="translate(0,-360)" />
  <g
     inkscape:label="main"
     inkscape:groupmode="layer"
     id="layer1"
     transform="translate(0,-852.36218)">
    <g
       id="system_icon_glow"
       transform="matrix(0.83417741,0,0,0.83416532,234.12652,288.60985)"
       style="mix-blend-mode:normal;fill:#0b2a4f;fill-opacity:1;stroke:#0b2241;stroke-opacity:1;filter:url(#filter3998)">
      <path
         id="path3296"
         style="color:#000000;fill:#0b2a4f;fill-opacity:1;stroke:#0b2241;stroke-width:0.834171;stroke-linecap:round;stroke-opacity:1;-inkscape-stroke:none"
         d="m 331.70312,151.06641 a 2.5656043,2.5655671 0 0 0 -2.56445,2.56445 v 13.64453 a 2.5656043,2.5655671 0 0 0 2.56445,2.56445 2.5656043,2.5655671 0 0 0 2.56446,-2.56445 v -13.64453 a 2.5656043,2.5655671 0 0 0 -2.56446,-2.56445 z m -8.08398,2.45117 a 2.5656043,2.5655671 0 0 0 -1.91211,0.45117 c -6.04277,4.34344 -8.60025,12.11398 -6.31836,19.19727 2.28189,7.08328 8.89605,11.90291 16.33789,11.90234 7.44185,-5.7e-4 14.05513,-4.82066 16.33594,-11.9043 2.2808,-7.08363 -0.27883,-14.85474 -6.32227,-19.19726 a 2.5656043,2.5655671 0 0 0 -3.58007,0.58593 2.5656043,2.5655671 0 0 0 0.58789,3.58008 c 4.25084,3.05445 6.03592,8.47647 4.43164,13.45899 -1.60428,4.98252 -6.21868,8.34335 -11.45313,8.34375 -5.23444,4e-4 -9.84807,-3.35953 -11.45312,-8.3418 -1.60504,-4.98227 0.17931,-10.40584 4.42968,-13.46094 a 2.5656043,2.5655671 0 0 0 0.58594,-3.58008 2.5656043,2.5655671 0 0 0 -1.66992,-1.03515 z"
         transform="matrix(1.1987858,0,0,1.1988031,-280.66754,675.82806)" />
    </g>
    <path
       style="opacity:0.2;fill:#000000;stroke:#000000;stroke-width:1.06858px;stroke-linecap:butt;stroke-linejoin:miter;stroke-opacity:1"
       d="m 207.34355,888.02253 h -21.3715 c -50.23834,0 4.06031,102.67436 -96.171779,149.60057 H 207.34355 Z"
       id="path3864"
       inkscape:connector-curvature="0"
       sodipodi:nodetypes="csccc" />
    <path
       id="rect2819"
       style="fill:#ffffff;stroke-width:1.51181;stop-color:#000000"
       d="m 26.302734,25.007812 c -2.959955,0 -5.34375,2.38384 -5.34375,5.34375 V 184.98047 c 0,2.9599 2.383795,5.34375 5.34375,5.34375 H 222.43555 c 2.95995,0 5.34179,-2.38385 5.34179,-5.34375 V 30.351562 c 0,-2.95991 -2.38184,-5.34375 -5.34179,-5.34375 h -27.41016 c -5.55208,0 -5.65839,8.052735 0,8.052735 h 2.26758 c 2.67158,0 4.82226,2.150665 4.82226,4.822265 V 177.44922 c 0,2.6716 -2.15068,4.82226 -4.82226,4.82226 H 35.855469 c -2.671585,0 -4.822266,-2.15066 -4.822266,-4.82226 V 37.882812 c 0,-2.6716 2.150681,-4.822265 4.822266,-4.822265 H 140.39062 c 5.58256,0 5.64355,-8.052735 0,-8.052735 z"
       transform="translate(0,852.36218)"
       sodipodi:nodetypes="sssssssssssssssssssss" />
    <text
       xml:space="preserve"
       style="font-style:normal;font-variant:normal;font-weight:normal;font-stretch:normal;line-height:0%;font-family:sans-serif;-inkscape-font-specification:sans-serif;text-align:center;letter-spacing:0px;word-spacing:0px;text-anchor:middle;fill:#ce5c00;fill-opacity:1;stroke:none"
       x="116.60863"
       y="1019.3638"
       id="temp_inner_status"
       transform="scale(1.06949,0.93502511)"><tspan
         sodipodi:role="line"
         id="tspan3978"
         x="116.60863"
         y="1019.3638"
         style="font-weight:bold;font-size:42.7222px;line-height:1.25;font-family:'Droid Sans';-inkscape-font-specification:'Droid Sans Bold';text-align:center;text-anchor:middle;fill:#ce5c00">75°</tspan></text>
    <text
       xml:space="preserve"
       style="font-style:normal;font-variant:normal;font-weight:normal;font-stretch:normal;line-height:0%;font-family:'Droid Sans';-inkscape-font-specification:'Droid Sans';text-align:start;letter-spacing:0px;word-spacing:0px;text-anchor:start;fill:#ffffff;fill-opacity:1;stroke:none"
       x="295.15475"
       y="926.58612"
       id="time_remaining"><tspan
         sodipodi:role="line"
         id="tspan4787"
         x="295.15475"
         y="926.58612"
         style="font-size:39.3941px;line-height:1.25;text-align:center;text-anchor:middle">0:34</tspan></text>
    <text
       id="time_elapsed"
       y="958.25641"
       x="314.96198"
       style="font-style:normal;font-variant:normal;font-weight:normal;font-stretch:normal;line-height:0%;font-family:'Droid Sans';-inkscape-font-specification:'Droid Sans';text-align:start;letter-spacing:0px;word-spacing:0px;text-anchor:start;fill:#ffffff;fill-opacity:1;stroke:none"
       xml:space="preserve"><tspan
         style="font-size:24.3326px;line-height:1.25;text-align:center;text-anchor:middle"
         y="958.25641"
         x="314.96198"
         id="tspan4791"
         sodipodi:role="line">3:67</tspan></text>
    <path
       style="fill:none;stroke:#ffffff;stroke-width:3;stroke-linecap:butt;stroke-linejoin:miter;stroke-miterlimit:4;stroke-dasharray:none;stroke-opacity:1"
       d="M 247.97149,935.70901 H 342.4211"
       id="path4793"
       inkscape:connector-curvature="0"
       sodipodi:nodetypes="cc" />
    <rect
       ry="5.7888737"
       y="890.10162"
       x="207.07642"
       height="142.17853"
       width="15.494354"
       id="temp_heater_icon"
       style="color:#000000;display:inline;overflow:visible;visibility:visible;fill:#ef2929;fill-opacity:1;fill-rule:nonzero;stroke:#2e3436;stroke-width:5;stroke-miterlimit:4;stroke-dasharray:none;marker:none;enable-background:accumulate" />
    <path
       style="fill:none;stroke:#ce5c00;stroke-width:2.13716;stroke-linecap:butt;stroke-linejoin:miter;stroke-miterlimit:4;stroke-dasharray:none;stroke-opacity:1"
       d="M 55.473388,956.67845 H 190.91311"
       id="path3184"
       inkscape:connector-curvature="0"
       sodipodi:nodetypes="cc" />
    <g
       id="icon_heating"
       transform="matrix(0.64440775,0,0,0.64439841,263.60773,308.10077)">
      <circle
         transform="translate(3.25,864.61218)"
         id="path4445"
         style="color:#000000;display:inline;overflow:visible;visibility:visible;fill:none;stroke:#eeeeec;stroke-width:2.24354;stroke-linecap:round;stroke-linejoin:miter;stroke-miterlimit:4;stroke-dasharray:none;stroke-dashoffset:0;stroke-opacity:0.7109;marker:none;enable-background:accumulate"
         cx="113.75"
         cy="12.5"
         r="17.5" />
      <path
         style="fill:none;stroke:#ef2929;stroke-width:3.36531;stroke-linecap:butt;stroke-linejoin:miter;stroke-miterlimit:4;stroke-dasharray:none;stroke-opacity:1"
         d="m 111.71441,866.83354 c -5.05673,9.41939 4.36267,11.20412 -0.59491,21.71418"
         id="path4456"
         inkscape:connector-curvature="0"
         sodipodi:nodetypes="cc" />
      <use
         x="0"
         y="0"
         xlink:href="#path4456"
         id="use4460"
         transform="translate(5.608856)"
         width="360"
         height="200" />
      <use
         height="200"
         width="360"
         transform="translate(11.217712)"
         id="use4462"
         xlink:href="#path4456"
         y="0"
         x="0" />
    </g>
    <g
       id="lid_override"
       transform="translate(0,10)">
      <path
         sodipodi:type="star"
         style="color:#000000;display:inline;overflow:visible;visibility:visible;opacity:0.446809;fill:#000000;fill-opacity:1;fill-rule:nonzero;stroke:#000000;stroke-width:3;stroke-linecap:butt;stroke-linejoin:round;stroke-miterlimit:4;stroke-dasharray:none;stroke-dashoffset:0;stroke-opacity:1;marker:none;filter:url(#filter4060);enable-background:accumulate"
         id="path4058"
         sodipodi:sides="3"
         sodipodi:cx="182.08"
         sodipodi:cy="-66.225708"
         sodipodi:r1="26.666927"
         sodipodi:r2="13.333464"
         sodipodi:arg1="1.5707963"
         sodipodi:arg2="2.669982"
         inkscape:flatsided="false"
         inkscape:rounded="0"
         inkscape:randomized="0"
         d="m 182.08,-39.558781 -11.87795,-20.609245 -11.21629,-19.391145 23.78711,0.01801 22.40137,-0.01802 -11.90916,20.591231 z"
         transform="matrix(0.82752949,0,0,0.82752949,-123.6171,927.76136)"
         inkscape:transform-center-y="4.7499819" />
      <path
         inkscape:transform-center-y="4.7499819"
         transform="matrix(0.82752949,0,0,0.82752949,-124.77856,926.5999)"
         d="m 182.08,-39.558781 -11.87795,-20.609245 -11.21629,-19.391145 23.78711,0.01801 22.40137,-0.01802 -11.90916,20.591231 z"
         inkscape:randomized="0"
         inkscape:rounded="0"
         inkscape:flatsided="false"
         sodipodi:arg2="2.669982"
         sodipodi:arg1="1.5707963"
         sodipodi:r2="13.333464"
         sodipodi:r1="26.666927"
         sodipodi:cy="-66.225708"
         sodipodi:cx="182.08"
         sodipodi:sides="3"
         id="path3265"
         style="color:#000000;display:inline;overflow:visible;visibility:visible;fill:#deff0d;fill-opacity:1;fill-rule:nonzero;stroke:#000000;stroke-width:3;stroke-linecap:butt;stroke-linejoin:round;stroke-miterlimit:4;stroke-dasharray:none;stroke-dashoffset:0;stroke-opacity:1;marker:none;enable-background:accumulate"
         sodipodi:type="star" />
      <path
         inkscape:connector-curvature="0"
         id="path4131"
         style="font-style:normal;font-variant:normal;font-weight:bold;font-stretch:normal;font-size:18.5834px;line-height:125%;font-family:'Droid Sans';-inkscape-font-specification:'Droid Sans Bold';text-align:start;letter-spacing:0px;word-spacing:0px;text-anchor:start;fill:#000000;fill-opacity:1;stroke:none"
         d="m 25.427982,880.1513 h -4.391769 v -16.20599 h 4.391769 v 1.91459 h -2.03255 v 12.37681 h 2.03255 v 1.91459" />
      <path
         id="rect2290"
         style="stroke-width:1.51181;stop-color:#000000"
         d="m 24.748848,867.11707 h 7.16203 v 10.09173 h -7.16203 z" />
    </g>
    <g
       transform="matrix(0.89104493,0,0,0.89153888,12.869,99.356871)"
       id="mode_run">
      <circle
         style="color:#000000;display:inline;overflow:visible;visibility:visible;fill:none;stroke:#eeeeec;stroke-width:2.24354;stroke-linecap:round;stroke-linejoin:miter;stroke-miterlimit:4;stroke-dasharray:none;stroke-dashoffset:0;stroke-opacity:0.7109;marker:none;enable-background:accumulate"
         id="path4291"
         transform="translate(3.25,864.61218)"
         cx="113.75"
         cy="12.5"
         r="17.5" />
      <path
         style="color:#000000;display:inline;overflow:visible;visibility:visible;fill:#4e9a06;fill-opacity:1;fill-rule:nonzero;stroke:none;stroke-width:1;marker:none;enable-background:accumulate"
         inkscape:transform-center-x="-0.35477978"
         d="m 128.4459,877.11218 -16.68284,9.6265 v -19.25301 z"
         id="path4299"
         inkscape:connector-curvature="0"
         sodipodi:nodetypes="cccc" />
    </g>
    <g
       id="mode_pause"
       transform="matrix(0.89104493,0,0,0.89153888,12.869,99.356871)">
      <circle
         transform="translate(3.25,864.61218)"
         id="path4303"
         style="color:#000000;display:inline;overflow:visible;visibility:visible;fill:none;stroke:#eeeeec;stroke-width:2.24354;stroke-linecap:round;stroke-linejoin:miter;stroke-miterlimit:4;stroke-dasharray:none;stroke-dashoffset:0;stroke-opacity:0.7109;marker:none;enable-background:accumulate"
         cx="113.75"
         cy="12.5"
         r="17.5" />
      <g
         id="g4320"
         transform="translate(0.11962032,-0.22003197)">
        <rect
           y="869.57532"
           x="109.11919"
           height="15.513789"
           width="6.2089558"
           id="rect4308"
           style="color:#000000;display:inline;overflow:visible;visibility:visible;fill:#edd400;fill-opacity:1;fill-rule:nonzero;stroke:none;stroke-width:1;marker:none;enable-background:accumulate" />
        <rect
           style="color:#000000;display:inline;overflow:visible;visibility:visible;fill:#edd400;fill-opacity:1;fill-rule:nonzero;stroke:none;stroke-width:1;marker:none;enable-background:accumulate"
           id="rect4310"
           width="6.2089558"
           height="15.513789"
           x="118.43262"
           y="869.57532" />
      </g>
    </g>
    <g
       transform="matrix(0.89104493,0,0,0.89153888,12.869,99.356871)"
       id="mode_stop">
      <circle
         style="color:#000000;display:inline;overflow:visible;visibility:visible;fill:none;stroke:#eeeeec;stroke-width:2.24354;stroke-linecap:round;stroke-linejoin:miter;stroke-miterlimit:4;stroke-dasharray:none;stroke-dashoffset:0;stroke-opacity:0.7109;marker:none;enable-background:accumulate"
         id="path4314"
         transform="translate(3.25,864.61218)"
         cx="113.75"
         cy="12.5"
         r="17.5" />
      <rect
         y="869.44537"
         x="109.2731"
         height="15.333625"
         width="15.453796"
         id="rect4316"
         style="color:#000000;display:inline;overflow:visible;visibility:visible;fill:#ef2929;fill-opacity:1;fill-rule:nonzero;stroke:none;stroke-width:1;marker:none;enable-background:accumulate" />
    </g>
    <path
       id="path3109"
       style="fill:#ffffff;stroke-width:1.51181;stop-color:#000000"
       d="m 42.678016,977.27396 c 1.161321,-0.44015 2.497355,-0.74841 4.139688,-1.09407 3.253852,-0.68485 4.651715,-0.88953 7.076546,-0.0669 2.972206,1.00829 -0.508707,7.7728 2.349373,11.11376 3.07683,3.59666 15.966784,6.46486 17.85911,15.72095 2.003183,9.7986 -0.63925,19.2346 -6.327925,24.923 -2.522366,2.5223 -4.148338,2.944 -9.941108,4.1131 -5.792792,1.1691 -6.369207,1.304 -9.704373,0 -7.483317,-2.9228 -14.601077,-10.3326 -15.801635,-20.2458 -0.573921,-4.739 1.861648,-8.1303 1.365466,-10.7333 -1.604328,-8.41648 0.84307,-11.27108 2.911908,-12.24121 1.132067,-0.53087 2.381376,-0.60067 5.442148,1.57034 0.209554,0.14863 0.572598,-0.19866 0.638444,-0.41485 1.262663,-4.1458 -5.379225,-8.65258 -3.105911,-10.75599 0.949059,-0.87813 1.93694,-1.45018 3.098269,-1.8903 z m -4.80138,14.20638 c -2.344381,0.36232 -3.314337,4.13127 -2.496083,9.29376 1.7852,-2.82027 5.720762,-6.85522 5.315206,-7.77735 -0.10388,-0.2362 -2.315062,-1.59432 -2.819123,-1.51641 z"
       sodipodi:nodetypes="sssssscssssscssscssc" />
    <rect
       style="fill:#ffffff;stroke-width:1.51181;stop-color:#000000"
       id="rect5105"
       width="18.791565"
       height="22.903328"
       x="125.19579"
       y="1004.3611"
       ry="1.6847187"
       transform="rotate(2.4863391)" />
    <rect
       style="fill:#ffffff;stroke-width:1.51181;stop-color:#000000"
       id="rect5187"
       width="15.058474"
       height="18.353403"
       x="57.070732"
       y="1017.5546"
       ry="1.3500361"
       transform="rotate(-2.5614443)" />
    <path
       id="path8254"
       style="fill:#ffffff;stroke-width:1.51181;stop-color:#000000"
       d="m 190.70434,982.06433 0.02,0.0111 c 0.65877,0.35412 0.28634,0.95648 0.0974,1.68014 -1.63498,6.2623 -5.97406,14.33357 -6.01353,15.65891 -0.0395,1.32522 2.05019,4.64252 2.31304,5.95342 0.26286,1.3109 -5.67698,13.2396 -7.28705,13.6107 -1.61007,0.3711 -4.73905,0.1354 -5.62175,0.5764 -0.88268,0.4408 -5.15797,7.7464 -9.21171,12.5148 -0.48438,0.5698 -0.87647,1.068 -1.53526,0.7139 l -0.0195,-0.014 c -0.65877,-0.3541 -0.39898,-0.889 -0.1466,-1.593 6.78951,-18.9415 15.43754,-33.63563 26.11305,-48.28485 0.44049,-0.60445 0.63339,-1.18461 1.29236,-0.83037 z"
       sodipodi:nodetypes="ssszzzzsssssss" />
    <path
       style="fill:#ffffff;stroke:none;stroke-width:1px;stroke-linecap:butt;stroke-linejoin:miter;stroke-opacity:1"
       d="m 131.56898,1032.2443 19.01477,0.1612 1.30235,-4.4728 -7.90817,-1.5085 -0.0171,-1.1902 -2.69934,-0.6955 0.85029,-8.9581 -1.2224,-0.2169 0.28632,-2.3237 -2.22807,-0.2679 -0.28174,2.3242 -6.88289,-0.7576 -0.11323,1.7407 1.1314,0.1284 c 0.31228,2.0209 0.0889,3.9966 -0.075,5.9773 -3.41692,-0.3273 -5.92462,-1.2895 -7.96643,-2.2024 0.61597,8.5048 3.87027,10.5545 6.80924,12.2618 z"
       id="path8311"
       sodipodi:nodetypes="ccccccccccccccccc" />
    <path
       inkscape:connector-curvature="0"
       id="path4779"
       d="m 226.48746,1028.3184 h 71.73879"
       style="fill:none;stroke:#eeeeec;stroke-width:2;stroke-linecap:butt;stroke-linejoin:miter;stroke-miterlimit:4;stroke-dasharray:none;stroke-opacity:1"
       sodipodi:nodetypes="cc" />
    <text
       id="heater_power_status"
       y="1025.0618"
       x="298.59576"
       style="font-style:normal;font-variant:normal;font-weight:normal;font-stretch:normal;font-size:10.2618px;line-height:0%;font-family:sans-serif;-inkscape-font-specification:sans-serif;text-align:start;letter-spacing:0px;word-spacing:0px;text-anchor:start;fill:#ffffff;fill-opacity:1;stroke:none;stroke-width:1.37741"
       xml:space="preserve"><tspan
         style="font-weight:bold;font-size:14.6206px;line-height:1.25;font-family:'Droid Sans';-inkscape-font-specification:'Droid Sans Bold';text-align:end;text-anchor:end;stroke-width:1.37741"
         y="1025.0618"
         x="298.59576"
         id="tspan4783"
         sodipodi:role="line">11.3kW</tspan></text>
    <text
       id="extramass_status"
       y="1004.0988"
       x="-153.42499"
       style="font-style:normal;font-variant:normal;font-weight:normal;font-stretch:normal;font-size:8.95598px;line-height:0%;font-family:sans-serif;-inkscape-font-specification:sans-serif;text-align:start;letter-spacing:0px;word-spacing:0px;text-anchor:start;fill:#062d58;fill-opacity:1;stroke:none;stroke-width:1.20213"
       xml:space="preserve"
       transform="rotate(-11.883523)"><tspan
         style="font-weight:bold;font-size:12.7601px;line-height:1.25;font-family:'Droid Sans';-inkscape-font-specification:'Droid Sans Bold';text-align:center;text-anchor:middle;fill:#062d58;fill-opacity:1;stroke-width:1.20213"
         y="1004.0988"
         x="-153.42499"
         id="tspan2909"
         sodipodi:role="line">22kg</tspan></text>
    <g
       id="system_icon"
       transform="matrix(0.83417741,0,0,0.83416532,234.12652,288.60985)"
       style="fill:#8ff0a4;fill-opacity:1;stroke:#8ff0a4">
      <path
         id="path979"
         style="color:#000000;fill:#8ff0a4;fill-opacity:1;stroke:none;stroke-width:0.834171;stroke-linecap:round;-inkscape-stroke:none"
         d="m 331.70312,151.06641 a 2.5656043,2.5655671 0 0 0 -2.56445,2.56445 v 13.64453 a 2.5656043,2.5655671 0 0 0 2.56445,2.56445 2.5656043,2.5655671 0 0 0 2.56446,-2.56445 v -13.64453 a 2.5656043,2.5655671 0 0 0 -2.56446,-2.56445 z m -8.08398,2.45117 a 2.5656043,2.5655671 0 0 0 -1.91211,0.45117 c -6.04277,4.34344 -8.60025,12.11398 -6.31836,19.19727 2.28189,7.08328 8.89605,11.90291 16.33789,11.90234 7.44185,-5.7e-4 14.05513,-4.82066 16.33594,-11.9043 2.2808,-7.08363 -0.27883,-14.85474 -6.32227,-19.19726 a 2.5656043,2.5655671 0 0 0 -3.58007,0.58593 2.5656043,2.5655671 0 0 0 0.58789,3.58008 c 4.25084,3.05445 6.03592,8.47647 4.43164,13.45899 -1.60428,4.98252 -6.21868,8.34335 -11.45313,8.34375 -5.23444,4e-4 -9.84807,-3.35953 -11.45312,-8.3418 -1.60504,-4.98227 0.17931,-10.40584 4.42968,-13.46094 a 2.5656043,2.5655671 0 0 0 0.58594,-3.58008 2.5656043,2.5655671 0 0 0 -1.66992,-1.03515 z"
         transform="matrix(1.1987858,0,0,1.1988031,-280.66754,675.82806)" />
    </g>
    <g
       id="damper_0">
      <path
         style="fill:none;stroke:#ffffff;stroke-width:7.90634;stroke-linecap:round;stroke-linejoin:miter;stroke-miterlimit:4;stroke-dasharray:none;stroke-opacity:1"
         d="M 193.32282,881.36062 H 141.53331"
         id="damper0"
         sodipodi:nodetypes="cc" />
    </g>
    <g
       id="damper_1">
      <path
         style="fill:none;stroke:#ffffff;stroke-width:7.85456;stroke-linecap:round;stroke-linejoin:miter;stroke-miterlimit:4;stroke-dasharray:none;stroke-opacity:1"
         d="M 193.17193,881.13867 148.97792,870.11958"
         id="damper1"
         sodipodi:nodetypes="cc" />
      <path
         style="opacity:0.130628;fill:#ffffff;fill-opacity:1;stroke:none;stroke-width:1px;stroke-linecap:butt;stroke-linejoin:miter;stroke-opacity:1"
         d="m 157.05137,883.67358 c 0,0 -6.97834,-7.5691 -11.47221,-9.14068 -6.24568,-2.18421 -9.19672,-9.54818 -9.19672,-9.54818 0,0 1.29038,9.48043 7.65936,11.90161 4.95774,1.88471 13.00957,6.78725 13.00957,6.78725 z"
         id="path3016"
         sodipodi:nodetypes="cscsc" />
    </g>
    <g
       id="damper_2">
      <path
         style="fill:none;stroke:#ffffff;stroke-width:7.85456;stroke-linecap:round;stroke-linejoin:miter;stroke-miterlimit:4;stroke-dasharray:none;stroke-opacity:1"
         d="M 193.17193,881.13867 163.10541,859.2676"
         id="damper2"
         sodipodi:nodetypes="cc" />
      <path
         style="opacity:0.218798;fill:#ffffff;fill-opacity:1;stroke:none;stroke-width:1.24264px;stroke-linecap:butt;stroke-linejoin:miter;stroke-opacity:1"
         d="m 168.76233,877.61978 c 0,0 -7.61153,-10.28237 -12.95382,-12.82359 -7.42484,-3.53182 -10.08819,-13.02343 -10.08819,-13.02343 0,0 0.32929,11.88483 7.87484,15.72586 5.8736,2.98997 15.16717,10.12116 15.16717,10.12116 z"
         id="path3016-3"
         sodipodi:nodetypes="cscsc" />
      <path
         style="opacity:0.218798;fill:#ffffff;fill-opacity:1;stroke:none;stroke-width:1.24264px;stroke-linecap:butt;stroke-linejoin:miter;stroke-opacity:1"
         d="m 164.98522,880.81149 c 0,0 -9.36289,-8.71772 -15.0797,-10.23956 -7.94535,-2.11505 -12.29889,-10.95986 -12.29889,-10.95986 0,0 2.49629,11.62437 10.61684,14.02136 6.32119,1.8659 16.76175,7.17806 16.76175,7.17806 z"
         id="path3852"
         sodipodi:nodetypes="cscsc" />
    </g>
    <g
       id="damper_3"
       style="fill:#ffffff">
      <path
         style="fill:#ffffff;stroke:#ffffff;stroke-width:7.85456;stroke-linecap:round;stroke-linejoin:miter;stroke-miterlimit:4;stroke-dasharray:none;stroke-opacity:1"
         d="m 193.17193,881.13867 -9.39828,-24.16829"
         id="damper3"
         sodipodi:nodetypes="cc" />
      <path
         style="opacity:0.294954;fill:#ffffff;fill-opacity:1;stroke:none;stroke-width:1.55073px;stroke-linecap:butt;stroke-linejoin:miter;stroke-opacity:1"
         d="m 165.00041,888.11901 c 0,0 -8.78156,-13.33273 -15.26466,-16.8644 -9.01036,-4.90838 -11.68025,-16.91753 -11.68025,-16.91753 0,0 -0.40208,14.83168 8.73756,20.13364 7.11448,4.12715 18.20735,13.64829 18.20735,13.64829 z"
         id="path3016-6"
         sodipodi:nodetypes="cscsc" />
      <use
         x="0"
         y="0"
         xlink:href="#path3016-6"
         id="use3947"
         width="100%"
         height="100%"
         transform="matrix(0.86545736,0.11301771,-0.11301771,0.86545736,132.03908,98.550986)"
         style="fill:#ffffff" />
      <use
         x="0"
         y="0"
         xlink:href="#path3016-6"
         id="use3949"
         width="100%"
         height="100%"
         transform="matrix(0.6886046,0.17044654,-0.17044654,0.6886046,221.0944,243.26462)"
         style="fill:#ffffff" />
    </g>
    <g
       id="damper_4">
      <path
         style="fill:none;stroke:#ffffff;stroke-width:7.85456;stroke-linecap:round;stroke-linejoin:miter;stroke-miterlimit:4;stroke-dasharray:none;stroke-opacity:1"
         d="M 193.17193,881.13867 218.8898,860.02676"
         sodipodi:nodetypes="cc"
         id="path4661" />
      <path
         style="opacity:0.448596;fill:#ffffff;fill-opacity:1;stroke:none;stroke-width:1.05861px;stroke-linecap:butt;stroke-linejoin:miter;stroke-opacity:1"
         d="m 153.76995,885.99907 c 0,0 -1.55381,-10.78711 -4.53363,-14.85158 -4.14141,-5.64889 -2.30369,-13.84357 -2.30369,-13.84357 0,0 -4.55524,9.04645 -0.44822,14.97602 3.19696,4.61571 7.28554,13.71913 7.28554,13.71913 z"
         id="path3016-7"
         sodipodi:nodetypes="cscsc" />
      <use
         x="0"
         y="0"
         xlink:href="#path3016-7"
         id="use4046"
         width="100%"
         height="100%"
         transform="matrix(1.0759562,0.17863057,-0.17863057,1.0759562,156.2618,-94.093296)" />
      <use
         x="0"
         y="0"
         xlink:href="#path3016-7"
         id="use4048"
         width="100%"
         height="100%"
         transform="matrix(1.0150662,0.45891403,-0.45891403,1.0150662,421.95569,-83.33482)" />
      <use
         x="0"
         y="0"
         xlink:href="#path3016-7"
         id="use4050"
         width="100%"
         height="100%"
         transform="rotate(38.163253,169.64931,924.38024)" />
    </g>
    <use
       x="0"
       y="0"
       xlink:href="#path8254"
       id="use1"
       transform="rotate(-6.7314971,178.07946,892.93664)" />
  </g>
</svg>
