<?xml version="1.0" encoding="UTF-8" standalone="no"?>
<!-- Created with Inkscape (http://www.inkscape.org/) -->

<svg
   xmlns:dc="http://purl.org/dc/elements/1.1/"
   xmlns:cc="http://creativecommons.org/ns#"
   xmlns:rdf="http://www.w3.org/1999/02/22-rdf-syntax-ns#"
   xmlns:svg="http://www.w3.org/2000/svg"
   xmlns="http://www.w3.org/2000/svg"
   xmlns:xlink="http://www.w3.org/1999/xlink"
   xmlns:sodipodi="http://sodipodi.sourceforge.net/DTD/sodipodi-0.dtd"
   xmlns:inkscape="http://www.inkscape.org/namespaces/inkscape"
   width="200"
   height="200"
   id="svg4618"
   version="1.1"
   inkscape:version="0.48.4 r9939"
   sodipodi:docname="sprites.svg">
  <defs
     id="defs4620" />
  <sodipodi:namedview
     id="base"
     pagecolor="#ffffff"
     bordercolor="#666666"
     borderopacity="1.0"
     inkscape:pageopacity="0.0"
     inkscape:pageshadow="2"
     inkscape:zoom="16"
     inkscape:cx="38.45097"
     inkscape:cy="125.04465"
     inkscape:document-units="px"
     inkscape:current-layer="layer1"
     showgrid="true"
     inkscape:snap-grids="true"
     inkscape:window-width="1920"
     inkscape:window-height="1031"
     inkscape:window-x="0"
     inkscape:window-y="25"
     inkscape:window-maximized="1"
     showguides="true"
     inkscape:guide-bbox="true"
     inkscape:snap-to-guides="false">
    <inkscape:grid
       type="xygrid"
       id="grid4626"
       empspacing="5"
       visible="true"
       enabled="true"
       snapvisiblegridlinesonly="true" />
    <sodipodi:guide
       orientation="0,1"
       position="54,172"
       id="guide2995" />
    <sodipodi:guide
       orientation="0,1"
       position="25,168"
       id="guide2997" />
    <sodipodi:guide
       orientation="0,1"
       position="33,152"
       id="guide2999" />
    <sodipodi:guide
       orientation="1,0"
       position="16,154"
       id="guide3001" />
    <sodipodi:guide
       orientation="1,0"
       position="32,144"
       id="guide3007" />
    <sodipodi:guide
       orientation="1,0"
       position="48,156"
       id="guide3009" />
    <sodipodi:guide
       orientation="1,0"
       position="64,156"
       id="guide3011" />
    <sodipodi:guide
       orientation="1,0"
       position="80,154"
       id="guide3013" />
    <sodipodi:guide
       orientation="1,0"
       position="96,146"
       id="guide3027" />
    <sodipodi:guide
       orientation="1,0"
       position="112,152"
       id="guide3029" />
    <sodipodi:guide
       orientation="1,0"
       position="128,157"
       id="guide3031" />
    <sodipodi:guide
       orientation="1,0"
       position="144,163.16489"
       id="guide3265" />
    <sodipodi:guide
       orientation="1,0"
       position="160,170.05918"
       id="guide3065" />
    <sodipodi:guide
       orientation="1,0"
       position="176,169.66143"
       id="guide3067" />
    <sodipodi:guide
       orientation="1,0"
       position="24,104.75"
       id="guide3095" />
  </sodipodi:namedview>
  <metadata
     id="metadata4623">
    <rdf:RDF>
      <cc:Work
         rdf:about="">
        <dc:format>image/svg+xml</dc:format>
        <dc:type
           rdf:resource="http://purl.org/dc/dcmitype/StillImage" />
        <dc:title />
      </cc:Work>
    </rdf:RDF>
  </metadata>
  <g
     inkscape:groupmode="layer"
     id="layer2"
     inkscape:label="bg">
    <rect
       style="color:#000000;fill:#204a87;fill-opacity:1;fill-rule:nonzero;stroke:none;stroke-width:2;marker:none;visibility:visible;display:inline;overflow:visible;enable-background:accumulate"
       id="rect4721"
       width="200.47844"
       height="24"
       x="0"
       y="48" />
  </g>
  <g
     inkscape:label="Layer 1"
     inkscape:groupmode="layer"
     id="layer1"
     transform="translate(0,-852.36218)">
    <path
       sodipodi:type="arc"
       style="color:#000000;fill:#ffffff;fill-opacity:0.14218008;fill-rule:nonzero;stroke:#204a87;stroke-width:1.64285719;stroke-miterlimit:4;stroke-dasharray:none;marker:none;visibility:visible;display:inline;overflow:visible;enable-background:accumulate"
       id="path4628"
       sodipodi:cx="10"
       sodipodi:cy="10"
       sodipodi:rx="10"
       sodipodi:ry="10"
       d="M 20,10 C 20,15.522847 15.522847,20 10,20 4.4771525,20 0,15.522847 0,10 0,4.4771525 4.4771525,0 10,0 15.522847,0 20,4.4771525 20,10 z"
       transform="matrix(1.2937294,0,0,1.2937294,1.0627063,853.42489)" />
    <path
       transform="matrix(1.2937294,0,0,1.2937294,29.062706,853.42489)"
       d="M 20,10 C 20,15.522847 15.522847,20 10,20 4.4771525,20 0,15.522847 0,10 0,4.4771525 4.4771525,0 10,0 15.522847,0 20,4.4771525 20,10 z"
       sodipodi:ry="10"
       sodipodi:rx="10"
       sodipodi:cy="10"
       sodipodi:cx="10"
       id="path5138"
       style="color:#000000;fill:#ffffff;fill-opacity:0.14218008;fill-rule:nonzero;stroke:#204a87;stroke-width:1.64285719;stroke-miterlimit:4;stroke-dasharray:none;marker:none;visibility:visible;display:inline;overflow:visible;enable-background:accumulate"
       sodipodi:type="arc" />
    <path
       style="fill:none;stroke:#000000;stroke-width:2;stroke-linecap:butt;stroke-linejoin:miter;stroke-miterlimit:4;stroke-opacity:1;stroke-dasharray:none"
       d="M 4.875,17.625 9.75,11.875 16,19.125 20.875,6.25"
       id="path5140"
       inkscape:connector-curvature="0"
       transform="translate(0,852.36218)"
       sodipodi:nodetypes="cccc" />
    <path
       style="fill:none;stroke:#000000;stroke-width:2;stroke-linecap:butt;stroke-linejoin:miter;stroke-opacity:1;stroke-miterlimit:4;stroke-dasharray:none"
       d="M 35.25 10 L 48.875 10 L 35.25 10 z M 35.25 14 L 48.875 14 L 35.25 14 z M 35.25 18 L 48.875 18 L 35.25 18 z "
       transform="translate(0,852.36218)"
       id="path5142" />
    <path
       style="color:#000000;fill:#204a87;fill-opacity:1;fill-rule:nonzero;stroke:none;stroke-width:4;marker:none;visibility:visible;display:inline;overflow:visible;enable-background:accumulate"
       d="M 13,34 3.15625,40 13,46 13,43 8,40 13,37 z"
       transform="translate(0,852.36218)"
       id="path3003"
       inkscape:connector-curvature="0"
       sodipodi:nodetypes="ccccccc" />
    <use
       x="0"
       y="0"
       xlink:href="#path3003"
       inkscape:transform-center-x="0.6264803"
       id="use3005"
       transform="matrix(-1,0,0,1,32.034115,0)"
       width="200"
       height="200" />
    <path
       style="fill:#4e9a06;stroke:none;stroke-width:1px;stroke-linecap:butt;stroke-linejoin:miter;stroke-opacity:1"
       d="m 35,34 10,6 -10,6 z"
       id="path3019"
       inkscape:connector-curvature="0"
       transform="translate(0,852.36218)" />
    <rect
       style="color:#000000;fill:#a40000;fill-opacity:1;fill-rule:nonzero;stroke:none;stroke-width:4;marker:none;visibility:visible;display:inline;overflow:visible;enable-background:accumulate"
       id="rect3021"
       width="10"
       height="10"
       x="51"
       y="35"
       transform="translate(0,852.36218)" />
    <g
       id="g3852">
      <rect
         y="887.36218"
         x="68"
         height="10"
         width="3"
         id="rect3023"
         style="color:#000000;fill:#ce5c00;fill-opacity:1;fill-rule:nonzero;stroke:none;stroke-width:4;marker:none;visibility:visible;display:inline;overflow:visible;enable-background:accumulate" />
      <use
         height="200"
         width="200"
         transform="translate(5,0)"
         id="use3025"
         xlink:href="#rect3023"
         y="0"
         x="0" />
    </g>
    <g
       id="g3836">
      <path
         sodipodi:nodetypes="cccc"
         inkscape:connector-curvature="0"
         id="path3033"
         d="m 84,865.36218 4,7 4,-7 z"
         style="fill:#5c3566;stroke:none" />
      <path
         sodipodi:nodetypes="cccccc"
         inkscape:connector-curvature="0"
         id="path3035"
         d="m 84,868.36218 -1,1 0,7 10,0 0,-7 -1,-1"
         style="fill:none;stroke:#5c3566;stroke-width:2;stroke-linecap:butt;stroke-linejoin:round;stroke-miterlimit:4;stroke-opacity:1;stroke-dasharray:none" />
    </g>
    <path
       style="fill:#4e9a06;stroke:none"
       d="m 116,870.36218 -2,2 3,5 2,0 7,-10 -3,0 -5,8 z"
       id="path3805"
       inkscape:connector-curvature="0"
       sodipodi:nodetypes="cccccccc" />
    <g
       id="g3840">
      <path
         style="fill:#5c3566;stroke:none"
         d="m 101,874.36218 3,-7 3,7 z"
         id="path3807"
         inkscape:connector-curvature="0"
         sodipodi:nodetypes="cccc" />
      <path
         style="fill:none;stroke:#5c3566;stroke-width:2;stroke-linecap:butt;stroke-linejoin:round;stroke-miterlimit:4;stroke-opacity:1;stroke-dasharray:none"
         d="m 100,868.36218 -1,1 0,7 10,0 0,-7 -1,-1"
         id="path3809"
         inkscape:connector-curvature="0"
         sodipodi:nodetypes="cccccc" />
    </g>
    <g
       id="g3848">
      <path
         transform="translate(0,852.36218)"
         inkscape:connector-curvature="0"
         id="path3811"
         d="m 83,44 10,0"
         style="fill:none;stroke:#2e3436;stroke-width:2;stroke-linecap:butt;stroke-linejoin:round;stroke-opacity:1;color:#000000;stroke-miterlimit:4;stroke-dasharray:none;stroke-dashoffset:0;marker:none;visibility:visible;display:inline;overflow:visible;enable-background:accumulate" />
      <path
         style="fill:#5c3566;stroke:none"
         d="m 84,887.36218 4,7 4,-7 z"
         id="path3830"
         inkscape:connector-curvature="0"
         sodipodi:nodetypes="cccc" />
    </g>
    <g
       id="g3844">
      <path
         style="color:#000000;fill:none;stroke:#2e3436;stroke-width:2;stroke-linecap:butt;stroke-linejoin:round;stroke-miterlimit:4;stroke-opacity:1;stroke-dasharray:none;stroke-dashoffset:0;marker:none;visibility:visible;display:inline;overflow:visible;enable-background:accumulate"
         d="m 100,896.36218 10,0"
         id="path3832"
         inkscape:connector-curvature="0" />
      <path
         sodipodi:nodetypes="cccc"
         inkscape:connector-curvature="0"
         id="path3834"
         d="m 101,893.36218 4,-7 4,7 z"
         style="fill:#5c3566;stroke:none" />
    </g>
    <g
       id="g3856"
       transform="translate(32,20)">
      <path
         style="fill:#4e9a06;stroke:none"
         d="m 84,865.36218 4,7 4,-7 z"
         id="path3858"
         inkscape:connector-curvature="0"
         sodipodi:nodetypes="cccc" />
      <path
         style="fill:none;stroke:#2e3436;stroke-width:2;stroke-linecap:butt;stroke-linejoin:round;stroke-miterlimit:4;stroke-opacity:1;stroke-dasharray:none"
         d="m 84,868.36218 -1,1 0,7 10,0 0,-7 -1,-1"
         id="path3860"
         inkscape:connector-curvature="0"
         sodipodi:nodetypes="cccccc" />
    </g>
    <g
       id="g4756">
      <rect
         ry="4"
         rx="4"
         transform="translate(0,852.36218)"
         y="50"
         x="2"
         height="20"
         width="44"
         id="rect4723"
         style="color:#000000;fill:none;stroke:#ffffff;stroke-width:2;marker:none;visibility:visible;display:inline;overflow:visible;enable-background:accumulate" />
      <path
         transform="translate(0,852.36218)"
         inkscape:connector-curvature="0"
         id="path4725"
         d="m 24,50 0,20"
         style="fill:none;stroke:#ffffff;stroke-width:2;stroke-linecap:butt;stroke-linejoin:miter;stroke-opacity:1;color:#000000;stroke-miterlimit:4;stroke-dasharray:none;stroke-dashoffset:0;marker:none;visibility:visible;display:inline;overflow:visible;enable-background:accumulate" />
      <text
         sodipodi:linespacing="125%"
         id="text4744"
         y="917.25635"
         x="3.8862696"
         style="font-size:13.83273411px;font-style:normal;font-variant:normal;font-weight:normal;font-stretch:normal;text-align:start;line-height:125%;letter-spacing:0px;word-spacing:0px;text-anchor:start;fill:#000000;fill-opacity:1;stroke:none;font-family:sans-serif;-inkscape-font-specification:sans-serif"
         xml:space="preserve"><tspan
           style="fill:#ffffff;font-family:Droid Sans;-inkscape-font-specification:Droid Sans"
           y="917.25635"
           x="3.8862696"
           id="tspan4746"
           sodipodi:role="line">off</tspan></text>
      <text
         xml:space="preserve"
         style="font-size:13.83273411px;font-style:normal;font-variant:normal;font-weight:normal;font-stretch:normal;text-align:start;line-height:125%;letter-spacing:0px;word-spacing:0px;text-anchor:start;fill:#000000;fill-opacity:1;stroke:none;font-family:sans-serif;-inkscape-font-specification:sans-serif"
         x="26.886269"
         y="917.25635"
         id="text4752"
         sodipodi:linespacing="125%"><tspan
           sodipodi:role="line"
           id="tspan4754"
           x="26.886269"
           y="917.25635"
           style="fill:#ffffff;font-family:Droid Sans;-inkscape-font-specification:Droid Sans">on</tspan></text>
    </g>
    <g
       id="g4764"
       transform="translate(48,0)">
      <path
         style="color:#000000;fill:#ffffff;stroke:none;stroke-width:2;marker:none;visibility:visible;display:inline;overflow:visible;enable-background:accumulate"
         d="m 24.875,902.36218 17.125,0 c 2.216,0 4,1.784 4,4 l 0,12 c 0,2.216 -1.784,4 -4,4 l -17.0625,0 z"
         id="rect4792"
         inkscape:connector-curvature="0"
         sodipodi:nodetypes="csssscc" />
      <rect
         style="color:#000000;fill:none;stroke:#ffffff;stroke-width:2;marker:none;visibility:visible;display:inline;overflow:visible;enable-background:accumulate"
         id="rect4766"
         width="44"
         height="20"
         x="2"
         y="50"
         transform="translate(0,852.36218)"
         rx="4"
         ry="4" />
      <path
         style="color:#000000;fill:none;stroke:#ffffff;stroke-width:2;stroke-linecap:butt;stroke-linejoin:miter;stroke-miterlimit:4;stroke-opacity:1;stroke-dasharray:none;stroke-dashoffset:0;marker:none;visibility:visible;display:inline;overflow:visible;enable-background:accumulate"
         d="m 24,50 0,20"
         id="path4768"
         inkscape:connector-curvature="0"
         transform="translate(0,852.36218)" />
      <text
         xml:space="preserve"
         style="font-size:13.83273411px;font-style:normal;font-variant:normal;font-weight:normal;font-stretch:normal;text-align:start;line-height:125%;letter-spacing:0px;word-spacing:0px;text-anchor:start;fill:#000000;fill-opacity:1;stroke:none;font-family:sans-serif;-inkscape-font-specification:sans-serif"
         x="3.8862696"
         y="917.25635"
         id="text4770"
         sodipodi:linespacing="125%"><tspan
           sodipodi:role="line"
           id="tspan4772"
           x="3.8862696"
           y="917.25635"
           style="fill:#ffffff;font-family:Droid Sans;-inkscape-font-specification:Droid Sans">off</tspan></text>
      <text
         sodipodi:linespacing="125%"
         id="text4774"
         y="917.25635"
         x="26.886269"
         style="font-size:13.83273411000000053px;font-style:normal;font-variant:normal;font-weight:normal;font-stretch:normal;text-align:start;line-height:125%;letter-spacing:0px;word-spacing:0px;text-anchor:start;fill:#204a87;fill-opacity:1;stroke:none;font-family:sans-serif;-inkscape-font-specification:sans-serif"
         xml:space="preserve"><tspan
           style="fill:#204a87;font-family:Droid Sans;-inkscape-font-specification:Droid Sans"
           y="917.25635"
           x="26.886269"
           id="tspan4776"
           sodipodi:role="line">on</tspan></text>
    </g>
    <g
       transform="translate(96,0)"
       id="g4778">
      <path
         style="color:#000000;fill:#ffffff;stroke:none;stroke-width:2;marker:none;visibility:visible;display:inline;overflow:visible;enable-background:accumulate"
         d="m 23,902.36218 -17.125,0 c -2.216,0 -4,1.784 -4,4 l 0,12 c 0,2.216 1.784,4 4,4 l 17.0625,0 z"
         id="rect4792-6"
         inkscape:connector-curvature="0"
         sodipodi:nodetypes="csssscc" />
      <rect
         ry="4"
         rx="4"
         transform="translate(0,852.36218)"
         y="50"
         x="2"
         height="20"
         width="44"
         id="rect4780"
         style="color:#000000;fill:none;stroke:#ffffff;stroke-width:2;marker:none;visibility:visible;display:inline;overflow:visible;enable-background:accumulate" />
      <path
         transform="translate(0,852.36218)"
         inkscape:connector-curvature="0"
         id="path4782"
         d="m 24,50 0,20"
         style="color:#000000;fill:none;stroke:#ffffff;stroke-width:2;stroke-linecap:butt;stroke-linejoin:miter;stroke-miterlimit:4;stroke-opacity:1;stroke-dasharray:none;stroke-dashoffset:0;marker:none;visibility:visible;display:inline;overflow:visible;enable-background:accumulate" />
      <text
         sodipodi:linespacing="125%"
         id="text4784"
         y="917.25635"
         x="3.8862696"
         style="font-size:13.83273411000000053px;font-style:normal;font-variant:normal;font-weight:normal;font-stretch:normal;text-align:start;line-height:125%;letter-spacing:0px;word-spacing:0px;text-anchor:start;fill:#204a87;fill-opacity:1;stroke:none;font-family:sans-serif;-inkscape-font-specification:sans-serif"
         xml:space="preserve"><tspan
           style="fill:#204a87;font-family:Droid Sans;-inkscape-font-specification:Droid Sans"
           y="917.25635"
           x="3.8862696"
           id="tspan4786"
           sodipodi:role="line">off</tspan></text>
      <text
         xml:space="preserve"
         style="font-size:13.83273411px;font-style:normal;font-variant:normal;font-weight:normal;font-stretch:normal;text-align:start;line-height:125%;letter-spacing:0px;word-spacing:0px;text-anchor:start;fill:#000000;fill-opacity:1;stroke:none;font-family:sans-serif;-inkscape-font-specification:sans-serif"
         x="26.886269"
         y="917.25635"
         id="text4788"
         sodipodi:linespacing="125%"><tspan
           sodipodi:role="line"
           id="tspan4790"
           x="26.886269"
           y="917.25635"
           style="fill:#ffffff;font-family:Droid Sans;-inkscape-font-specification:Droid Sans">on</tspan></text>
    </g>
    <g
       id="g4874"
       transform="translate(144,0)">
      <rect
         style="color:#000000;fill:none;stroke:#ffffff;stroke-width:2;marker:none;visibility:visible;display:inline;overflow:visible;enable-background:accumulate"
         id="rect4876"
         width="21"
         height="20"
         x="2"
         y="50"
         transform="translate(0,852.36218)"
         rx="4"
         ry="4" />
      <text
         xml:space="preserve"
         style="font-size:13.83273411px;font-style:normal;font-variant:normal;font-weight:normal;font-stretch:normal;text-align:start;line-height:125%;letter-spacing:0px;word-spacing:0px;text-anchor:start;fill:#000000;fill-opacity:1;stroke:none;font-family:sans-serif;-inkscape-font-specification:sans-serif"
         x="9"
         y="916.36218"
         id="text4880"
         sodipodi:linespacing="125%"><tspan
           sodipodi:role="line"
           id="tspan4882"
           x="9"
           y="916.36218"
           style="fill:#ffffff;font-family:Droid Sans;-inkscape-font-specification:Droid Sans">x</tspan></text>
    </g>
    <g
       id="g4890"
       transform="translate(0,23)" />
    <g
       id="g3259"
       transform="translate(63,0)">
      <rect
         style="color:#000000;fill:#ce5c00;fill-opacity:1;fill-rule:nonzero;stroke:none;stroke-width:4;marker:none;visibility:visible;display:inline;overflow:visible;enable-background:accumulate"
         id="rect3261"
         width="3"
         height="10"
         x="68"
         y="887.36218" />
      <path
         style="color:#000000;fill:#4e9a06;fill-opacity:1;fill-rule:nonzero;stroke:none;stroke-width:4;marker:none;visibility:visible;display:inline;overflow:visible;enable-background:accumulate"
         d="m 73,887.36218 6,5 -6,5 z"
         id="use3263"
         inkscape:connector-curvature="0"
         sodipodi:nodetypes="cccc" />
    </g>
    <g
       id="g3085"
       transform="matrix(1.8402139,0,0,1.8402139,-267.86759,-704.99884)">
      <path
         inkscape:transform-center-y="1.6388644"
         transform="matrix(1.3110895,0,0,1.3110895,-38.018292,844.43744)"
         d="m 145,40 -2.16506,-3.75 -2.16507,-3.75 4.33013,0 4.33013,0 -2.16507,3.75 z"
         inkscape:randomized="0"
         inkscape:rounded="0"
         inkscape:flatsided="false"
         sodipodi:arg2="2.6179939"
         sodipodi:arg1="1.5707963"
         sodipodi:r2="2.5"
         sodipodi:r1="5"
         sodipodi:cy="35"
         sodipodi:cx="145"
         sodipodi:sides="3"
         id="path3063"
         style="color:#000000;fill:#edd400;fill-opacity:1;fill-rule:nonzero;stroke:#ce5c00;stroke-width:1;stroke-linecap:butt;stroke-linejoin:round;stroke-miterlimit:4;stroke-opacity:1;stroke-dasharray:none;stroke-dashoffset:0;marker:none;visibility:visible;display:inline;overflow:visible;enable-background:accumulate"
         sodipodi:type="star" />
      <g
         id="text3071"
         style="font-size:9.91011333px;font-style:normal;font-variant:normal;font-weight:normal;font-stretch:normal;text-align:start;line-height:125%;letter-spacing:0px;word-spacing:0px;text-anchor:start;fill:#000000;fill-opacity:1;stroke:none;font-family:Droid Sans;-inkscape-font-specification:Droid Sans">
        <path
           id="path3080"
           style="font-weight:bold;-inkscape-font-specification:Droid Sans Bold"
           d="m 151.32167,892.45726 0,-0.35808 c -1e-5,-0.16452 0.0161,-0.31291 0.0484,-0.44518 0.0355,-0.13549 0.0871,-0.26291 0.15485,-0.38228 0.071,-0.12258 0.1613,-0.24032 0.27098,-0.35324 0.10968,-0.11613 0.24194,-0.23549 0.39679,-0.35808 0.13549,-0.10645 0.25001,-0.20161 0.34356,-0.28549 0.0936,-0.0839 0.16936,-0.16613 0.22743,-0.24679 0.0581,-0.0839 0.10001,-0.17097 0.12582,-0.2613 0.0258,-0.0903 0.0387,-0.19516 0.0387,-0.31453 -1e-5,-0.18387 -0.0629,-0.33549 -0.18872,-0.45486 -0.12259,-0.11935 -0.31131,-0.17903 -0.56615,-0.17904 -0.2226,10e-6 -0.46293,0.0468 -0.721,0.14033 -0.25486,0.0936 -0.51938,0.20808 -0.79359,0.34356 l -0.49357,-1.0694 c 0.13872,-0.0806 0.28872,-0.15645 0.45002,-0.22743 0.16452,-0.0742 0.33389,-0.13871 0.50809,-0.19355 0.17743,-0.0581 0.35647,-0.10323 0.53712,-0.13549 0.18065,-0.0323 0.35808,-0.0484 0.53228,-0.0484 0.32905,0 0.62583,0.0403 0.89036,0.12097 0.26453,0.0774 0.48873,0.19195 0.67261,0.34356 0.18388,0.15163 0.32421,0.33551 0.42099,0.55164 0.1,0.21614 0.15,0.46293 0.15001,0.74035 -1e-5,0.20324 -0.0226,0.38551 -0.0677,0.5468 -0.0452,0.15808 -0.11291,0.30647 -0.20323,0.44518 -0.0871,0.1355 -0.1984,0.26776 -0.33389,0.3968 -0.13227,0.12581 -0.28711,0.25969 -0.46454,0.40163 -0.13549,0.10646 -0.24678,0.20001 -0.33388,0.28065 -0.0839,0.0774 -0.15001,0.15163 -0.1984,0.22259 -0.0484,0.071 -0.0823,0.14517 -0.10161,0.22259 -0.0161,0.0742 -0.0242,0.16292 -0.0242,0.26615 l 0,0.29033 -1.27747,0 m -0.15969,1.65491 c 0,-0.15162 0.021,-0.27904 0.0629,-0.38227 0.0452,-0.10646 0.10645,-0.19195 0.18388,-0.25647 0.0774,-0.0645 0.16774,-0.11129 0.27098,-0.14032 0.10645,-0.029 0.21936,-0.0435 0.33872,-0.0435 0.11291,0 0.21936,0.0145 0.31937,0.0435 0.10323,0.029 0.19355,0.0758 0.27098,0.14032 0.0774,0.0645 0.13871,0.15001 0.18388,0.25647 0.0452,0.10323 0.0677,0.23065 0.0677,0.38227 0,0.14517 -0.0226,0.26937 -0.0677,0.3726 -0.0452,0.10323 -0.10646,0.18872 -0.18388,0.25646 -0.0774,0.0678 -0.16775,0.11614 -0.27098,0.14517 -0.10001,0.0323 -0.20646,0.0484 -0.31937,0.0484 -0.11936,0 -0.23227,-0.0161 -0.33872,-0.0484 -0.10324,-0.029 -0.19356,-0.0774 -0.27098,-0.14517 -0.0774,-0.0677 -0.13872,-0.15323 -0.18388,-0.25646 -0.0419,-0.10323 -0.0629,-0.22743 -0.0629,-0.3726"
           inkscape:connector-curvature="0" />
      </g>
    </g>
    <g
       id="g3090"
       transform="matrix(1.8320478,0,0,1.8320478,-271.89123,-697.71501)">
      <path
         sodipodi:type="star"
         style="color:#000000;fill:#cc0000;fill-opacity:1;fill-rule:nonzero;stroke:#a40000;stroke-width:1;stroke-linecap:butt;stroke-linejoin:round;stroke-miterlimit:4;stroke-opacity:1;stroke-dasharray:none;stroke-dashoffset:0;marker:none;visibility:visible;display:inline;overflow:visible;enable-background:accumulate"
         id="path3069"
         sodipodi:sides="3"
         sodipodi:cx="145"
         sodipodi:cy="35"
         sodipodi:r1="5"
         sodipodi:r2="2.5"
         sodipodi:arg1="1.5707963"
         sodipodi:arg2="2.6179939"
         inkscape:flatsided="false"
         inkscape:rounded="0"
         inkscape:randomized="0"
         d="m 145,40 -2.16506,-3.75 -2.16507,-3.75 4.33013,0 4.33013,0 -2.16507,3.75 z"
         transform="matrix(1.3110895,0,0,1.3110895,-22.018292,844.43744)"
         inkscape:transform-center-y="1.6388644" />
      <g
         id="text3075"
         style="font-size:9.91011333px;font-style:normal;font-variant:normal;font-weight:normal;font-stretch:normal;text-align:start;line-height:125%;letter-spacing:0px;word-spacing:0px;text-anchor:start;fill:#ffffff;fill-opacity:1;stroke:none;font-family:Droid Sans;-inkscape-font-specification:Droid Sans">
        <path
           id="path3083"
           style="font-weight:bold;fill:#ffffff;-inkscape-font-specification:Droid Sans Bold"
           d="m 168.74782,892.28044 -1.18069,0 -0.24679,-4.72763 1.67427,0 -0.24679,4.72763 m -1.44683,1.65491 c 0,-0.15162 0.021,-0.27904 0.0629,-0.38227 0.0452,-0.10646 0.10646,-0.19194 0.18388,-0.25646 0.0774,-0.0645 0.16775,-0.1113 0.27098,-0.14033 0.10323,-0.029 0.21453,-0.0435 0.33389,-0.0435 0.1129,0 0.21936,0.0145 0.31937,0.0435 0.10322,0.029 0.19355,0.0758 0.27098,0.14033 0.0774,0.0645 0.13871,0.15 0.18387,0.25646 0.0452,0.10323 0.0677,0.23065 0.0677,0.38227 0,0.14517 -0.0226,0.26937 -0.0677,0.3726 -0.0452,0.10323 -0.10645,0.18872 -0.18387,0.25646 -0.0774,0.0678 -0.16776,0.11614 -0.27098,0.14517 -0.10001,0.0323 -0.20647,0.0484 -0.31937,0.0484 -0.11936,0 -0.23066,-0.0161 -0.33389,-0.0484 -0.10323,-0.029 -0.19356,-0.0774 -0.27098,-0.14517 -0.0774,-0.0677 -0.13871,-0.15323 -0.18388,-0.25646 -0.0419,-0.10323 -0.0629,-0.22743 -0.0629,-0.3726"
           inkscape:connector-curvature="0" />
      </g>
    </g>
  </g>
</svg>
